# xmcd
#
# Track frame offsets:
#	150
#	14745
#	41712
#	67185
#	109660
#	120602
#	147820
#	183565
#	202037
#	252082
#	275420
#
# Disc length: 4119 seconds
#
# Revision: 2
# Processed by: cddbd v1.4PL0 Copyright (c) Steve Scherf et al.
# Submitted via: MusicWizard 6.0.2
#
DISCID=a910150b
DTITLE=Mojo Blues Band - Super Blues News  Disc 1
DYEAR=1900
DGENRE=Blues
TTITLE0=All My Money's Gone
TTITLE1=Better Off Dead
TTITLE2=MBB and A. C. Reed - The Sun Is Shining
TTITLE3=MBB and The Wild Taste Of Chicago - "Look Out Chicago"-Medley
TTITLE4=MBB and Axel Zwingenberger - Rollin' And Squeezin'
TTITLE5=MBB and Big Mojo Elem - Mojo Boogie
TTITLE6=MBB and Leon Thomas - Disiilusion Blues
TTITLE7=MBB and Champion Jack Dupree and Axel Zwingenberger - Shin Sham Shimmy
TTITLE8=MBB and Axel Zwingenberger - Talkin' About My Blues
TTITLE9=MBB and A. C. Reed - I Got The Blues
TTITLE10=MBB and Axel Zwingenberger - Ridin' The Boogie Train
EXTD=
EXTT0=
EXTT1=
EXTT2=
EXTT3=
EXTT4=
EXTT5=
EXTT6=
EXTT7=
EXTT8=
EXTT9=
EXTT10=
PLAYORDER=
